# Blender v2.76 (sub 0) OBJ File: 'linkeltje_skydome_linkeltje_2.blend'
# www.blender.org
mtllib linkeltje_skydome_linkeltje_2.mtl
o Sphere
v 7.529297 1.344705 2.407079
v 4.615947 1.344705 6.416919
v 0.037361 1.344707 7.904583
v -4.676466 1.344707 6.372953
v -7.506171 1.344704 2.478182
v -7.506171 1.344704 -2.478182
v -4.676466 1.344707 -6.372953
v 0.037361 1.344707 -7.904583
v 4.615947 1.344705 -6.416919
v 7.529297 1.344705 -2.407079
v 3.115310 2.520384 5.115475
v 3.804543 3.077970 2.764156
v 1.902266 3.733444 1.382075
v 5.827837 2.520380 1.382080
v -3.902442 2.520386 4.543597
v -1.453227 3.077975 4.472489
v -0.726611 3.733447 2.236238
v 0.486417 2.520386 5.969647
v -5.527166 2.520384 -2.307345
v -4.702675 3.077972 0.000000
v -2.351334 3.733447 0.000000
v -5.527167 2.520384 2.307345
v 0.486417 2.520386 -5.969647
v -1.453227 3.077975 -4.472489
v -0.726611 3.733447 -2.236238
v -3.902442 2.520386 -4.543597
v 5.827837 2.520380 -1.382080
v 3.804543 3.077970 -2.764156
v 1.902266 3.733444 -1.382075
v 3.115310 2.520384 -5.115475
v 8.943824 0.618091 -1.024999
v 8.943824 0.618091 1.024999
v 3.738617 0.618091 8.189302
v 1.788925 0.618091 8.822795
v -6.633201 0.618091 6.086260
v -7.838179 0.618091 4.427739
v -7.838179 0.618091 -4.427739
v -6.633201 0.618091 -6.086260
v 1.788925 0.618091 -8.822795
v 3.738617 0.618091 -8.189302
v 7.740298 0.726614 4.356636
v 6.535319 0.726614 6.015156
v -1.751564 0.726616 8.707727
v -3.701256 0.726616 8.074234
v -8.822817 0.726614 1.024999
v -8.822817 0.726614 -1.024999
v -3.701256 0.726616 -8.074234
v -1.751564 0.726616 -8.707727
v 6.535319 0.726614 -6.015156
v 7.740298 0.726614 -4.356636
v 8.338546 0.954267 -1.626768
v 8.338546 0.954267 1.626768
v 4.123893 0.954267 7.427684
v 1.029554 0.954267 8.433094
v -5.789804 0.954267 6.217329
v -7.702210 0.954267 3.585117
v -7.702210 0.954267 -3.585117
v -5.789804 0.954267 -6.217329
v 1.029554 0.954267 -8.433094
v 4.123893 0.954267 -7.427684
v 3.932505 1.974801 5.683148
v 6.620253 1.974800 1.983850
v 0.158965 1.974803 6.909236
v -4.189808 1.974803 5.496213
v -6.521960 1.974800 2.286269
v -6.521959 1.974800 -2.286269
v -4.189808 1.974803 -5.496213
v 0.158965 1.974803 -6.909236
v 3.932505 1.974801 -5.683148
v 6.620253 1.974800 -1.983850
v 5.858088 2.605515 0.000000
v 2.041041 3.785045 0.000000
v 1.810207 2.605520 5.571327
v 0.630706 3.785049 1.941135
v -4.739272 2.605520 3.443244
v -1.651237 3.785049 1.199681
v -4.739272 2.605520 -3.443244
v -1.651237 3.785049 -1.199681
v 1.810207 2.605520 -5.571327
v 0.630706 3.785049 -1.941135
v 7.610110 1.062790 3.496238
v 5.676794 1.062790 6.157218
v -0.973513 1.062793 8.318026
v -4.101662 1.062793 7.301624
v -8.211757 1.062790 1.644544
v -8.211757 1.062790 -1.644544
v -4.101662 1.062793 -7.301624
v -0.973513 1.062793 -8.318026
v 5.676794 1.062790 -6.157218
v 7.610110 1.062790 -3.496238
v 3.493463 2.826309 4.043025
v 4.924710 2.826305 2.073119
v 2.853402 3.466370 2.073114
v -2.765630 2.826312 4.571832
v -0.449873 2.826313 5.324279
v -1.089918 3.466375 3.354359
v -5.202716 2.826309 -1.217458
v -5.202716 2.826309 1.217458
v -3.527003 3.466374 0.000000
v -0.449873 2.826312 -5.324279
v -2.765630 2.826312 -4.571832
v -1.089918 3.466375 -3.354359
v 4.924710 2.826305 -2.073119
v 3.493463 2.826309 -4.043025
v 2.853402 3.466370 -2.073114
v 9.707212 0.000000 -1.537498
v 9.707212 0.000000 1.537498
v 4.461960 0.000000 8.756973
v 1.537422 0.000000 9.707213
v -6.949564 0.000000 6.949614
v -8.757031 0.000000 4.461834
v -8.757031 0.000000 -4.461834
v -6.949564 0.000000 -6.949614
v 1.537422 0.000000 -9.707213
v 4.461960 0.000000 -8.756973
v 8.757031 0.000000 4.461834
v 6.949564 0.000000 6.949614
v -1.537422 0.000000 9.707213
v -4.461960 0.000000 8.756973
v -9.707212 0.000000 1.537498
v -9.707212 0.000000 -1.537498
v -4.461960 0.000000 -8.756973
v -1.537422 0.000000 -9.707213
v 8.757031 0.000000 -4.461834
v 6.949564 0.000000 -6.949614
v 8.813777 0.772613 0.000000
v 2.723579 0.772613 8.382361
v -7.130476 0.772613 5.180555
v -7.130476 0.772613 -5.180555
v 2.723579 0.772613 -8.382361
v 7.008125 0.908267 5.091676
v -2.676878 0.908270 8.238526
v -8.662519 0.908267 0.000000
v -2.676878 0.908270 -8.238526
v 7.008125 0.908267 -5.091676
v 2.294083 1.704323 7.060554
v -6.006085 1.704323 4.363632
v -6.006085 1.704323 -4.363632
v 2.294083 1.704323 -7.060554
v 7.423965 1.704322 0.000000
v -0.000002 3.939856 -0.000000
v 9.348067 0.000000 -3.037331
v 9.348067 0.000000 3.037331
v 5.777419 0.000000 7.951925
v -0.000000 0.000000 9.829126
v -5.777419 0.000000 7.951925
v -9.348067 0.000000 3.037331
v -9.348067 0.000000 -3.037331
v -5.777419 0.000000 -7.951925
v -0.000000 0.000000 -9.829126
v 5.777419 0.000000 -7.951925
v 5.667072 2.026907 4.117353
v -2.164656 2.026912 6.662018
v -7.004882 2.026906 0.000000
v -2.164656 2.026912 -6.662018
v 5.667072 2.026907 -4.117353
v 4.145152 3.353515 0.000000
v 1.280896 3.353524 3.942249
v -3.353491 3.353523 2.436428
v -3.353491 3.353523 -2.436428
v 1.280896 3.353524 -3.942249
v 9.828813 0.000000 0.000000
v 3.037267 0.000000 9.347741
v -7.951674 0.000000 5.777198
v -7.951674 0.000000 -5.777198
v 3.037267 0.000000 -9.347741
v 7.951674 0.000000 5.777198
v -3.037267 0.000000 9.347741
v -9.828813 0.000000 0.000000
v -3.037267 0.000000 -9.347741
v 7.951674 0.000000 -5.777198
vt 0.874923 0.380162
vt 0.878947 0.325927
vt 0.782194 0.294999
vt 0.829657 0.401236
vt 0.869678 0.500022
vt 0.915219 0.419017
vt 0.965488 0.348778
vt 0.729853 0.180493
vt 0.705352 0.130162
vt 0.614237 0.148443
vt 0.695821 0.217031
vt 0.782678 0.193424
vt 0.787689 0.104057
vt 0.501864 0.106415
vt 0.451527 0.085827
vt 0.392215 0.168288
vt 0.507919 0.155978
vt 0.551270 0.080098
vt 0.500003 0.010582
vt 0.267139 0.182682
vt 0.211701 0.190431
vt 0.200931 0.282736
vt 0.291373 0.226339
vt 0.295762 0.136439
vt 0.212318 0.104057
vt 0.126235 0.376621
vt 0.091100 0.418132
vt 0.151197 0.500022
vt 0.175244 0.386177
vt 0.116473 0.321502
vt 0.034518 0.348778
vt 0.126235 0.623422
vt 0.116473 0.678542
vt 0.200931 0.717308
vt 0.175244 0.613866
vt 0.091100 0.581912
vt 0.034518 0.651265
vt 0.267139 0.817362
vt 0.295762 0.863605
vt 0.392215 0.831756
vt 0.291373 0.773705
vt 0.211701 0.809612
vt 0.212318 0.895986
vt 0.501864 0.893629
vt 0.551270 0.919946
vt 0.614237 0.851601
vt 0.507919 0.844066
vt 0.451527 0.914216
vt 0.500003 0.989461
vt 0.729853 0.819551
vt 0.782678 0.806619
vt 0.782194 0.705045
vt 0.695821 0.783013
vt 0.705352 0.869882
vt 0.787689 0.895986
vt 0.874923 0.619882
vt 0.915219 0.581026
vt 0.829657 0.598807
vt 0.878947 0.674116
vt 0.965488 0.651265
vt 0.655129 0.245298
vt 0.673959 0.298700
vt 0.590142 0.222599
vt 0.563785 0.303718
vt 0.689450 0.362381
vt 0.745228 0.396791
vt 0.642088 0.396791
vt 0.706410 0.500022
vt 0.594726 0.431202
vt 0.531409 0.403363
vt 0.500003 0.500022
vt 0.601636 0.500022
vt 0.790199 0.431201
vt 0.791705 0.500022
vt 0.305682 0.273774
vt 0.264012 0.328566
vt 0.333017 0.378700
vt 0.362289 0.272368
vt 0.427640 0.277315
vt 0.477602 0.234900
vt 0.445731 0.332992
vt 0.463822 0.388669
vt 0.417780 0.440284
vt 0.524224 0.202764
vt 0.224779 0.614916
vt 0.264012 0.671477
vt 0.333017 0.621343
vt 0.240935 0.560645
vt 0.265834 0.500022
vt 0.240935 0.439399
vt 0.324377 0.500022
vt 0.382919 0.500022
vt 0.417780 0.559760
vt 0.224779 0.385128
vt 0.524224 0.797279
vt 0.590142 0.777445
vt 0.563785 0.696325
vt 0.477602 0.765143
vt 0.427640 0.722728
vt 0.362289 0.727675
vt 0.445731 0.667051
vt 0.463822 0.611375
vt 0.531409 0.596680
vt 0.305682 0.726269
vt 0.790199 0.568842
vt 0.745228 0.603252
vt 0.689450 0.637662
vt 0.673959 0.701343
vt 0.642088 0.603252
vt 0.594726 0.568842
vt 0.655129 0.754746
vt 0.945359 0.551061
vt 0.983372 0.576581
vt 0.989427 0.500022
vt 0.938883 0.500022
vt 0.945359 0.448982
vt 0.983372 0.423462
vt 0.686167 0.092237
vt 0.722186 0.063970
vt 0.651243 0.034553
vt 0.635623 0.082624
vt 0.589082 0.060692
vt 0.576559 0.016653
vt 0.169704 0.196958
vt 0.153951 0.153967
vt 0.104051 0.212347
vt 0.144943 0.242057
vt 0.109703 0.279543
vt 0.063949 0.277846
vt 0.109703 0.720500
vt 0.063949 0.722198
vt 0.104051 0.787696
vt 0.144943 0.757986
vt 0.169704 0.803086
vt 0.153951 0.846076
vt 0.589082 0.939351
vt 0.576559 0.983390
vt 0.651243 0.965491
vt 0.635623 0.917420
vt 0.686167 0.907806
vt 0.722186 0.936073
vt 0.885430 0.283084
vt 0.936058 0.277846
vt 0.895955 0.212347
vt 0.848971 0.246483
vt 0.825428 0.200498
vt 0.846055 0.153967
vt 0.412784 0.066422
vt 0.423448 0.016653
vt 0.348763 0.034553
vt 0.366709 0.089786
vt 0.315700 0.097967
vt 0.277821 0.063970
vt 0.060673 0.448982
vt 0.016634 0.423462
vt 0.010579 0.500022
vt 0.068655 0.500022
vt 0.060673 0.551061
vt 0.016634 0.576581
vt 0.315700 0.902076
vt 0.277821 0.936073
vt 0.348763 0.965491
vt 0.366709 0.910257
vt 0.412784 0.933621
vt 0.423448 0.983390
vt 0.825428 0.799545
vt 0.846055 0.846076
vt 0.895955 0.787696
vt 0.848971 0.753561
vt 0.885430 0.716959
vt 0.936058 0.722198
vn -0.520700 -0.839500 -0.154900
vn -0.519000 -0.827600 -0.213500
vn -0.402000 -0.867800 -0.292100
vn -0.491000 -0.859300 -0.143000
vn -0.527100 -0.849800 0.000000
vn -0.548500 -0.827700 -0.118400
vn -0.557400 -0.811100 -0.177200
vn -0.308200 -0.839600 -0.447300
vn -0.282100 -0.827700 -0.485000
vn -0.162900 -0.849800 -0.501300
vn -0.287800 -0.859300 -0.422800
vn -0.363400 -0.827600 -0.427700
vn -0.340800 -0.811100 -0.475300
vn -0.013600 -0.839600 -0.543100
vn 0.042600 -0.827600 -0.559600
vn 0.153500 -0.867800 -0.472600
vn -0.015700 -0.859300 -0.511200
vn -0.056900 -0.827700 -0.558200
vn -0.003700 -0.811100 -0.584900
vn 0.330200 -0.839500 -0.431400
vn 0.374100 -0.827700 -0.418200
vn 0.426400 -0.849800 -0.309800
vn 0.313200 -0.859300 -0.404400
vn 0.294400 -0.827600 -0.477800
vn 0.346800 -0.811100 -0.471000
vn 0.512300 -0.839500 -0.180700
vn 0.545400 -0.827600 -0.132400
vn 0.496900 -0.867800 0.000000
vn 0.481300 -0.859300 -0.172900
vn 0.513300 -0.827700 -0.226600
vn 0.555100 -0.811100 -0.184200
vn 0.512300 -0.839500 0.180700
vn 0.513300 -0.827700 0.226600
vn 0.426400 -0.849800 0.309800
vn 0.481300 -0.859300 0.172900
vn 0.545400 -0.827600 0.132400
vn 0.555100 -0.811100 0.184200
vn 0.330200 -0.839500 0.431400
vn 0.294400 -0.827600 0.477800
vn 0.153500 -0.867800 0.472600
vn 0.313200 -0.859300 0.404400
vn 0.374100 -0.827700 0.418200
vn 0.346800 -0.811100 0.471000
vn -0.013600 -0.839600 0.543100
vn -0.056900 -0.827700 0.558200
vn -0.162900 -0.849800 0.501300
vn -0.015700 -0.859300 0.511200
vn 0.042600 -0.827600 0.559600
vn -0.003700 -0.811100 0.584900
vn -0.308200 -0.839600 0.447300
vn -0.363400 -0.827600 0.427700
vn -0.402000 -0.867800 0.292100
vn -0.287800 -0.859300 0.422800
vn -0.282100 -0.827700 0.485000
vn -0.340800 -0.811100 0.475300
vn -0.520700 -0.839500 0.154900
vn -0.548500 -0.827700 0.118400
vn -0.491000 -0.859300 0.143000
vn -0.519000 -0.827600 0.213500
vn -0.557400 -0.811100 0.177200
vn -0.244400 -0.886400 -0.393000
vn -0.267100 -0.915400 -0.301100
vn -0.139200 -0.892800 -0.428400
vn -0.093700 -0.952900 -0.288500
vn -0.284300 -0.936200 -0.206600
vn -0.368900 -0.915400 -0.161000
vn -0.213400 -0.964600 -0.155000
vn -0.303300 -0.952900 0.000000
vn -0.136400 -0.985700 -0.099100
vn -0.044400 -0.989600 -0.136800
vn 0.000000 -1.000000 0.000000
vn -0.143900 -0.989600 0.000000
vn -0.449300 -0.886400 -0.111000
vn -0.450500 -0.892800 0.000000
vn 0.298200 -0.886400 -0.353900
vn 0.364500 -0.892800 -0.264800
vn 0.245400 -0.952900 -0.178300
vn 0.203800 -0.915400 -0.347100
vn 0.108600 -0.936200 -0.334300
vn 0.039100 -0.915400 -0.400600
vn 0.081500 -0.964600 -0.250800
vn 0.052100 -0.985700 -0.160400
vn 0.116400 -0.989600 -0.084600
vn -0.033300 -0.886400 -0.461600
vn 0.428700 -0.886400 0.174300
vn 0.364500 -0.892800 0.264800
vn 0.245400 -0.952900 0.178300
vn 0.393100 -0.915400 0.086600
vn 0.351500 -0.936200 0.000000
vn 0.393100 -0.915400 -0.086600
vn 0.263700 -0.964600 0.000000
vn 0.168700 -0.985700 0.000000
vn 0.116400 -0.989600 0.084600
vn 0.428700 -0.886400 -0.174300
vn -0.033300 -0.886400 0.461600
vn -0.139200 -0.892800 0.428400
vn -0.093700 -0.952900 0.288500
vn 0.039100 -0.915400 0.400600
vn 0.108600 -0.936200 0.334300
vn 0.203800 -0.915400 0.347100
vn 0.081500 -0.964600 0.250800
vn 0.052100 -0.985700 0.160400
vn -0.044400 -0.989600 0.136800
vn 0.298200 -0.886400 0.353900
vn -0.449300 -0.886400 0.111000
vn -0.368900 -0.915400 0.161000
vn -0.284300 -0.936200 0.206600
vn -0.267100 -0.915400 0.301100
vn -0.213400 -0.964600 0.155000
vn -0.136400 -0.985700 0.099100
vn -0.244400 -0.886400 0.393000
vn -0.577900 -0.812200 0.080200
vn -0.586400 -0.803800 0.100100
vn -0.607700 -0.794100 0.000000
vn -0.576200 -0.817300 0.000000
vn -0.577900 -0.812200 -0.080200
vn -0.586400 -0.803800 -0.100100
vn -0.254800 -0.812200 -0.524800
vn -0.276400 -0.803800 -0.526800
vn -0.187800 -0.794100 -0.578000
vn -0.178000 -0.817300 -0.548000
vn -0.102300 -0.812200 -0.574300
vn -0.086000 -0.803800 -0.588600
vn 0.420400 -0.812200 -0.404500
vn 0.415600 -0.803800 -0.425600
vn 0.491700 -0.794100 -0.357200
vn 0.466200 -0.817300 -0.338700
vn 0.514600 -0.812200 -0.274800
vn 0.533200 -0.803800 -0.263700
vn 0.514600 -0.812200 0.274800
vn 0.533200 -0.803800 0.263700
vn 0.491700 -0.794100 0.357200
vn 0.466200 -0.817300 0.338700
vn 0.420400 -0.812200 0.404500
vn 0.415600 -0.803800 0.425600
vn -0.102300 -0.812200 0.574300
vn -0.086000 -0.803800 0.588600
vn -0.187800 -0.794100 0.578000
vn -0.178000 -0.817300 0.548000
vn -0.254800 -0.812200 0.524800
vn -0.276400 -0.803800 0.526800
vn -0.522400 -0.807100 -0.275100
vn -0.541200 -0.797100 -0.267600
vn -0.498600 -0.787500 -0.362200
vn -0.470100 -0.813800 -0.341500
vn -0.423000 -0.807100 -0.411800
vn -0.421800 -0.797100 -0.432000
vn 0.100200 -0.807100 -0.581800
vn 0.087300 -0.797100 -0.597400
vn 0.190400 -0.787500 -0.586100
vn 0.179500 -0.813800 -0.552600
vn 0.260900 -0.807100 -0.529600
vn 0.280500 -0.797100 -0.534600
vn 0.584300 -0.807100 -0.084500
vn 0.595100 -0.797100 -0.101600
vn 0.616200 -0.787500 0.000000
vn 0.581000 -0.813800 0.000000
vn 0.584300 -0.807100 0.084500
vn 0.595100 -0.797100 0.101600
vn 0.260900 -0.807100 0.529600
vn 0.280500 -0.797100 0.534600
vn 0.190400 -0.787500 0.586100
vn 0.179500 -0.813800 0.552600
vn 0.100200 -0.807100 0.581800
vn 0.087300 -0.797100 0.597400
vn -0.423000 -0.807100 0.411800
vn -0.421800 -0.797100 0.432000
vn -0.498600 -0.787500 0.362200
vn -0.470100 -0.813800 0.341500
vn -0.522400 -0.807100 0.275100
vn -0.541200 -0.797100 0.267600
usemtl Material.001
s 1
f 1/1/1 81/2/2 152/3/3 62/4/4
f 1/1/1 62/4/4 140/5/5 52/6/6
f 1/1/1 52/6/6 143/7/7 81/2/2
f 2/8/8 53/9/9 136/10/10 61/11/11
f 2/8/8 61/11/11 152/3/3 82/12/12
f 2/8/8 82/12/12 144/13/13 53/9/9
f 3/14/14 83/15/15 153/16/16 63/17/17
f 3/14/14 63/17/17 136/10/10 54/18/18
f 3/14/14 54/18/18 145/19/19 83/15/15
f 4/20/20 55/21/21 137/22/22 64/23/23
f 4/20/20 64/23/23 153/16/16 84/24/24
f 4/20/20 84/24/24 146/25/25 55/21/21
f 5/26/26 85/27/27 154/28/28 65/29/29
f 5/26/26 65/29/29 137/22/22 56/30/30
f 5/26/26 56/30/30 147/31/31 85/27/27
f 6/32/32 57/33/33 138/34/34 66/35/35
f 6/32/32 66/35/35 154/28/28 86/36/36
f 6/32/32 86/36/36 148/37/37 57/33/33
f 7/38/38 87/39/39 155/40/40 67/41/41
f 7/38/38 67/41/41 138/34/34 58/42/42
f 7/38/38 58/42/42 149/43/43 87/39/39
f 8/44/44 59/45/45 139/46/46 68/47/47
f 8/44/44 68/47/47 155/40/40 88/48/48
f 8/44/44 88/48/48 150/49/49 59/45/45
f 9/50/50 89/51/51 156/52/52 69/53/53
f 9/50/50 69/53/53 139/46/46 60/54/54
f 9/50/50 60/54/54 151/55/55 89/51/51
f 10/56/56 51/57/57 140/5/5 70/58/58
f 10/56/56 70/58/58 156/52/52 90/59/59
f 10/56/56 90/59/59 142/60/60 51/57/57
f 11/61/61 91/62/62 152/3/3 61/11/11
f 11/61/61 61/11/11 136/10/10 73/63/63
f 11/61/61 73/63/63 158/64/64 91/62/62
f 12/65/65 92/66/66 152/3/3 91/62/62
f 12/65/65 91/62/62 158/64/64 93/67/67
f 12/65/65 93/67/67 157/68/68 92/66/66
f 13/69/69 74/70/70 141/71/71 72/72/72
f 13/69/69 72/72/72 157/68/68 93/67/67
f 13/69/69 93/67/67 158/64/64 74/70/70
f 14/73/73 92/66/66 157/68/68 71/74/74
f 14/73/73 71/74/74 140/5/5 62/4/4
f 14/73/73 62/4/4 152/3/3 92/66/66
f 15/75/75 75/76/76 159/77/77 94/78/78
f 15/75/75 94/78/78 153/16/16 64/23/23
f 15/75/75 64/23/23 137/22/22 75/76/76
f 16/79/79 95/80/80 153/16/16 94/78/78
f 16/79/79 94/78/78 159/77/77 96/81/81
f 16/79/79 96/81/81 158/64/64 95/80/80
f 17/82/82 76/83/83 141/71/71 74/70/70
f 17/82/82 74/70/70 158/64/64 96/81/81
f 17/82/82 96/81/81 159/77/77 76/83/83
f 18/84/84 95/80/80 158/64/64 73/63/63
f 18/84/84 73/63/63 136/10/10 63/17/17
f 18/84/84 63/17/17 153/16/16 95/80/80
f 19/85/85 77/86/86 160/87/87 97/88/88
f 19/85/85 97/88/88 154/28/28 66/35/35
f 19/85/85 66/35/35 138/34/34 77/86/86
f 20/89/89 98/90/90 154/28/28 97/88/88
f 20/89/89 97/88/88 160/87/87 99/91/91
f 20/89/89 99/91/91 159/77/77 98/90/90
f 21/92/92 78/93/93 141/71/71 76/83/83
f 21/92/92 76/83/83 159/77/77 99/91/91
f 21/92/92 99/91/91 160/87/87 78/93/93
f 22/94/94 98/90/90 159/77/77 75/76/76
f 22/94/94 75/76/76 137/22/22 65/29/29
f 22/94/94 65/29/29 154/28/28 98/90/90
f 23/95/95 79/96/96 161/97/97 100/98/98
f 23/95/95 100/98/98 155/40/40 68/47/47
f 23/95/95 68/47/47 139/46/46 79/96/96
f 24/99/99 101/100/100 155/40/40 100/98/98
f 24/99/99 100/98/98 161/97/97 102/101/101
f 24/99/99 102/101/101 160/87/87 101/100/100
f 25/102/102 80/103/103 141/71/71 78/93/93
f 25/102/102 78/93/93 160/87/87 102/101/101
f 25/102/102 102/101/101 161/97/97 80/103/103
f 26/104/104 101/100/100 160/87/87 77/86/86
f 26/104/104 77/86/86 138/34/34 67/41/41
f 26/104/104 67/41/41 155/40/40 101/100/100
f 27/105/105 71/74/74 157/68/68 103/106/106
f 27/105/105 103/106/106 156/52/52 70/58/58
f 27/105/105 70/58/58 140/5/5 71/74/74
f 28/107/107 104/108/108 156/52/52 103/106/106
f 28/107/107 103/106/106 157/68/68 105/109/109
f 28/107/107 105/109/109 161/97/97 104/108/108
f 29/110/110 72/72/72 141/71/71 80/103/103
f 29/110/110 80/103/103 161/97/97 105/109/109
f 29/110/110 105/109/109 157/68/68 72/72/72
f 30/111/111 104/108/108 161/97/97 79/96/96
f 30/111/111 79/96/96 139/46/46 69/53/53
f 30/111/111 69/53/53 156/52/52 104/108/108
f 31/112/112 51/57/57 142/60/60 106/113/113
f 31/112/112 106/113/113 162/114/114 126/115/115
f 31/112/112 126/115/115 140/5/5 51/57/57
f 32/116/116 126/115/115 162/114/114 107/117/117
f 32/116/116 107/117/117 143/7/7 52/6/6
f 32/116/116 52/6/6 140/5/5 126/115/115
f 33/118/118 108/119/119 163/120/120 127/121/121
f 33/118/118 127/121/121 136/10/10 53/9/9
f 33/118/118 53/9/9 144/13/13 108/119/119
f 34/122/122 109/123/123 145/19/19 54/18/18
f 34/122/122 54/18/18 136/10/10 127/121/121
f 34/122/122 127/121/121 163/120/120 109/123/123
f 35/124/124 55/21/21 146/25/25 110/125/125
f 35/124/124 110/125/125 164/126/126 128/127/127
f 35/124/124 128/127/127 137/22/22 55/21/21
f 36/128/128 128/127/127 164/126/126 111/129/129
f 36/128/128 111/129/129 147/31/31 56/30/30
f 36/128/128 56/30/30 137/22/22 128/127/127
f 37/130/130 57/33/33 148/37/37 112/131/131
f 37/130/130 112/131/131 165/132/132 129/133/133
f 37/130/130 129/133/133 138/34/34 57/33/33
f 38/134/134 129/133/133 165/132/132 113/135/135
f 38/134/134 113/135/135 149/43/43 58/42/42
f 38/134/134 58/42/42 138/34/34 129/133/133
f 39/136/136 59/45/45 150/49/49 114/137/137
f 39/136/136 114/137/137 166/138/138 130/139/139
f 39/136/136 130/139/139 139/46/46 59/45/45
f 40/140/140 130/139/139 166/138/138 115/141/141
f 40/140/140 115/141/141 151/55/55 60/54/54
f 40/140/140 60/54/54 139/46/46 130/139/139
f 41/142/142 81/2/2 143/7/7 116/143/143
f 41/142/142 116/143/143 167/144/144 131/145/145
f 41/142/142 131/145/145 152/3/3 81/2/2
f 42/146/146 131/145/145 167/144/144 117/147/147
f 42/146/146 117/147/147 144/13/13 82/12/12
f 42/146/146 82/12/12 152/3/3 131/145/145
f 43/148/148 83/15/15 145/19/19 118/149/149
f 43/148/148 118/149/149 168/150/150 132/151/151
f 43/148/148 132/151/151 153/16/16 83/15/15
f 44/152/152 132/151/151 168/150/150 119/153/153
f 44/152/152 119/153/153 146/25/25 84/24/24
f 44/152/152 84/24/24 153/16/16 132/151/151
f 45/154/154 85/27/27 147/31/31 120/155/155
f 45/154/154 120/155/155 169/156/156 133/157/157
f 45/154/154 133/157/157 154/28/28 85/27/27
f 46/158/158 133/157/157 169/156/156 121/159/159
f 46/158/158 121/159/159 148/37/37 86/36/36
f 46/158/158 86/36/36 154/28/28 133/157/157
f 47/160/160 87/39/39 149/43/43 122/161/161
f 47/160/160 122/161/161 170/162/162 134/163/163
f 47/160/160 134/163/163 155/40/40 87/39/39
f 48/164/164 134/163/163 170/162/162 123/165/165
f 48/164/164 123/165/165 150/49/49 88/48/48
f 48/164/164 88/48/48 155/40/40 134/163/163
f 49/166/166 89/51/51 151/55/55 125/167/167
f 49/166/166 125/167/167 171/168/168 135/169/169
f 49/166/166 135/169/169 156/52/52 89/51/51
f 50/170/170 135/169/169 171/168/168 124/171/171
f 50/170/170 124/171/171 142/60/60 90/59/59
f 50/170/170 90/59/59 156/52/52 135/169/169
